<?xml version="1.0" standalone="no"?>
<!DOCTYPE svg PUBLIC "-//W3C//DTD SVG 20010904//EN"
 "http://www.w3.org/TR/2001/REC-SVG-20010904/DTD/svg10.dtd">
<svg version="1.0" xmlns="http://www.w3.org/2000/svg"
 width="16.000000pt" height="16.000000pt" viewBox="0 0 16.000000 16.000000"
 preserveAspectRatio="xMidYMid meet">
<metadata>
Created by potrace 1.11, written by Peter Selinger 2001-2013
</metadata>
<g transform="translate(0.000000,16.000000) scale(0.006154,-0.006154)"
fill="#000000" stroke="none">
<path d="M1436 1829 c-20 -16 -26 -29 -26 -59 0 -72 84 -106 135 -55 73 72
-28 178 -109 114z"/>
<path d="M720 1410 l0 -431 63 3 62 3 5 210 c3 141 9 217 17 232 49 85 177 85
226 0 8 -15 14 -91 17 -232 l5 -210 63 -3 63 -3 -3 233 -3 233 -29 53 c-49 89
-142 127 -245 102 -29 -7 -64 -24 -81 -40 l-29 -28 -3 152 -3 151 -62 3 -63 3
0 -431z"/>
<path d="M1745 1827 c-3 -6 -4 -199 -3 -427 l3 -415 63 -3 62 -3 0 431 0 430
-60 0 c-39 0 -62 -4 -65 -13z"/>
<path d="M256 1596 c-21 -8 -51 -27 -67 -42 l-29 -28 0 31 c0 19 -6 33 -16 37
-28 11 -91 6 -103 -8 -8 -9 -10 -131 -9 -432 l3 -419 60 0 60 0 3 153 3 153
37 -31 c91 -73 246 -53 308 39 40 61 54 123 54 241 0 162 -37 252 -121 296
-43 22 -137 27 -183 10z m123 -132 c39 -32 51 -77 51 -184 -1 -138 -43 -200
-135 -200 -91 0 -127 51 -133 188 -7 156 34 222 140 222 35 0 54 -6 77 -26z"/>
<path d="M2206 1594 c-68 -22 -140 -95 -160 -165 -20 -67 -21 -219 -1 -285 59
-198 347 -242 462 -70 46 67 56 114 51 236 -3 89 -8 113 -31 156 -28 56 -73
99 -125 121 -51 21 -141 25 -196 7z m154 -119 c51 -27 65 -66 65 -190 0 -90
-3 -116 -19 -141 -24 -41 -65 -64 -111 -64 -92 0 -134 62 -135 200 0 107 12
152 51 184 36 31 102 35 149 11z"/>
<path d="M1431 1586 c-8 -9 -11 -99 -9 -307 l3 -294 63 -3 62 -3 0 304 c0 339
5 317 -70 317 -20 0 -43 -6 -49 -14z"/>
</g>
</svg>
